<svg width="251" height="57" viewBox="0 0 251 57" fill="none" xmlns="http://www.w3.org/2000/svg">
<path d="M3.131 13V3.9H9.553L9.54 5.616H4.73L5.211 5.135L5.224 13H3.131ZM10.8371 13V3.9H14.7761C15.5907 3.9 16.2927 4.03433 16.8821 4.303C17.4714 4.563 17.9264 4.94 18.2471 5.434C18.5677 5.928 18.7281 6.51733 18.7281 7.202C18.7281 7.878 18.5677 8.463 18.2471 8.957C17.9264 9.451 17.4714 9.83233 16.8821 10.101C16.2927 10.361 15.5907 10.491 14.7761 10.491H12.0071L12.9431 9.542V13H10.8371ZM12.9431 9.776L12.0071 8.775H14.6591C15.3091 8.775 15.7944 8.63633 16.1151 8.359C16.4357 8.08167 16.5961 7.696 16.5961 7.202C16.5961 6.69933 16.4357 6.30933 16.1151 6.032C15.7944 5.75467 15.3091 5.616 14.6591 5.616H12.0071L12.9431 4.615V9.776ZM20.2262 11.284C20.7289 11.4313 21.1492 11.4747 21.4872 11.414C21.8339 11.3447 22.1415 11.102 22.4102 10.686L22.8522 10.023L23.0472 9.802L26.0632 3.9H28.1302L24.2562 11.102C23.9095 11.752 23.4979 12.2503 23.0212 12.597C22.5532 12.9437 22.0375 13.1387 21.4742 13.182C20.9109 13.234 20.3259 13.1343 19.7192 12.883L20.2262 11.284ZM23.0082 11.557L18.9002 3.9H21.1492L24.1652 10.01L23.0082 11.557ZM29.131 13V3.9H37.425V13H35.332V5.135L35.813 5.616H30.743L31.224 5.135V13H29.131ZM39.6808 13V3.9H47.9748V13H45.8818V5.135L46.3628 5.616H41.2928L41.7738 5.135V13H39.6808ZM49.2036 13L53.2596 3.9H55.3396L59.4086 13H57.1986L53.8706 4.966H54.7026L51.3616 13H49.2036ZM51.2316 11.05L51.7906 9.451H56.4706L57.0426 11.05H51.2316ZM70.186 13L67.352 8.619L69.055 7.592L72.578 13H70.186ZM64.271 13V3.9H66.364V13H64.271ZM65.753 9.334V7.579H68.925V9.334H65.753ZM69.25 8.684L67.313 8.45L70.264 3.9H72.487L69.25 8.684ZM77.8815 13.156C77.1622 13.156 76.4948 13.039 75.8795 12.805C75.2728 12.571 74.7442 12.2417 74.2935 11.817C73.8515 11.3923 73.5048 10.894 73.2535 10.322C73.0108 9.75 72.8895 9.126 72.8895 8.45C72.8895 7.774 73.0108 7.15 73.2535 6.578C73.5048 6.006 73.8558 5.50767 74.3065 5.083C74.7572 4.65833 75.2858 4.329 75.8925 4.095C76.4992 3.861 77.1578 3.744 77.8685 3.744C78.5878 3.744 79.2465 3.861 79.8445 4.095C80.4512 4.329 80.9755 4.65833 81.4175 5.083C81.8682 5.50767 82.2192 6.006 82.4705 6.578C82.7218 7.14133 82.8475 7.76533 82.8475 8.45C82.8475 9.126 82.7218 9.75433 82.4705 10.335C82.2192 10.907 81.8682 11.4053 81.4175 11.83C80.9755 12.246 80.4512 12.571 79.8445 12.805C79.2465 13.039 78.5922 13.156 77.8815 13.156ZM77.8685 11.362C78.2758 11.362 78.6485 11.2927 78.9865 11.154C79.3332 11.0153 79.6365 10.816 79.8965 10.556C80.1565 10.296 80.3558 9.98833 80.4945 9.633C80.6418 9.27767 80.7155 8.88333 80.7155 8.45C80.7155 8.01667 80.6418 7.62233 80.4945 7.267C80.3558 6.91167 80.1565 6.604 79.8965 6.344C79.6452 6.084 79.3462 5.88467 78.9995 5.746C78.6528 5.60733 78.2758 5.538 77.8685 5.538C77.4612 5.538 77.0842 5.60733 76.7375 5.746C76.3995 5.88467 76.1005 6.084 75.8405 6.344C75.5805 6.604 75.3768 6.91167 75.2295 7.267C75.0908 7.62233 75.0215 8.01667 75.0215 8.45C75.0215 8.87467 75.0908 9.269 75.2295 9.633C75.3768 9.98833 75.5762 10.296 75.8275 10.556C76.0875 10.816 76.3908 11.0153 76.7375 11.154C77.0842 11.2927 77.4612 11.362 77.8685 11.362ZM84.4699 13V3.9H86.2119L90.0859 10.322H89.1629L92.9719 3.9H94.7139L94.7269 13H92.7509L92.7379 6.929H93.1149L90.0599 12.038H89.1239L86.0039 6.929H86.4459V13H84.4699ZM96.9874 13V3.9H105.281V13H103.188V5.135L103.669 5.616H98.5994L99.0804 5.135V13H96.9874ZM106.51 13L110.566 3.9H112.646L116.715 13H114.505L111.177 4.966H112.009L108.668 13H106.51ZM108.538 11.05L109.097 9.451H113.777L114.349 11.05H108.538ZM124.162 3.9H126.268V13H124.162V3.9ZM120.028 13H117.922V3.9H120.028V13ZM124.318 9.269H119.872V7.488H124.318V9.269ZM128.548 13V3.9H130.641V9.828L134.983 3.9H136.959V13H134.879V7.085L130.537 13H128.548ZM139.225 13V3.9H141.318V9.828L145.66 3.9H147.636V13H145.556V7.085L141.214 13H139.225ZM143.424 3.315C142.557 3.315 141.92 3.14167 141.513 2.795C141.114 2.44833 140.91 1.95867 140.902 1.326H142.345C142.353 1.638 142.444 1.87633 142.618 2.041C142.8 2.197 143.068 2.275 143.424 2.275C143.77 2.275 144.035 2.197 144.217 2.041C144.399 1.87633 144.494 1.638 144.503 1.326H145.946C145.937 1.95867 145.729 2.44833 145.322 2.795C144.914 3.14167 144.282 3.315 143.424 3.315Z" fill="#040471"/>
<path d="M2.784 40V17.6H7.936V32.192L18.624 17.6H23.488V40H18.368V25.44L7.68 40H2.784ZM44.4253 17.6H49.6093V40H44.4253V17.6ZM34.2493 40H29.0653V17.6H34.2493V40ZM44.8093 30.816H33.8653V26.432H44.8093V30.816ZM67.0615 38.592C64.1602 38.592 61.6962 38.208 59.6695 37.44C57.6642 36.672 56.1388 35.5627 55.0935 34.112C54.0482 32.64 53.5255 30.848 53.5255 28.736C53.5255 26.624 54.0482 24.8427 55.0935 23.392C56.1388 21.92 57.6642 20.8 59.6695 20.032C61.6962 19.264 64.1602 18.88 67.0615 18.88C67.1042 18.88 67.2215 18.88 67.4135 18.88C67.6268 18.88 67.8295 18.88 68.0215 18.88C68.2348 18.88 68.3522 18.88 68.3735 18.88C71.2535 18.88 73.6855 19.264 75.6695 20.032C77.6748 20.8 79.1895 21.92 80.2135 23.392C81.2375 24.864 81.7495 26.6453 81.7495 28.736C81.7495 30.8053 81.2375 32.5867 80.2135 34.08C79.2108 35.552 77.7282 36.672 75.7655 37.44C73.8242 38.208 71.4455 38.592 68.6295 38.592C68.5655 38.592 68.4162 38.592 68.1815 38.592C67.9468 38.592 67.7122 38.592 67.4775 38.592C67.2642 38.592 67.1255 38.592 67.0615 38.592ZM67.5415 34.592C67.6055 34.592 67.6908 34.592 67.7975 34.592C67.9042 34.592 67.9788 34.592 68.0215 34.592C69.9842 34.592 71.6055 34.3787 72.8855 33.952C74.1868 33.504 75.1575 32.8533 75.7975 32C76.4375 31.1253 76.7575 30.0267 76.7575 28.704C76.7575 27.3813 76.4268 26.2933 75.7655 25.44C75.1042 24.5867 74.1335 23.9573 72.8535 23.552C71.5948 23.1253 70.0055 22.912 68.0855 22.912C68.0428 22.912 67.9575 22.912 67.8295 22.912C67.7228 22.912 67.6268 22.912 67.5415 22.912C65.5148 22.912 63.8402 23.1147 62.5175 23.52C61.1948 23.9253 60.2028 24.5653 59.5415 25.44C58.8802 26.2933 58.5495 27.392 58.5495 28.736C58.5495 30.08 58.9015 31.1893 59.6055 32.064C60.3095 32.9173 61.3228 33.5573 62.6455 33.984C63.9895 34.3893 65.6215 34.592 67.5415 34.592ZM65.2695 40.992V16.64H70.0375V40.992H65.2695ZM96.3478 40.384C94.5771 40.384 92.9344 40.096 91.4198 39.52C89.9264 38.944 88.6251 38.1333 87.5158 37.088C86.4278 36.0427 85.5744 34.816 84.9557 33.408C84.3584 32 84.0598 30.464 84.0598 28.8C84.0598 27.136 84.3584 25.6 84.9557 24.192C85.5744 22.784 86.4384 21.5573 87.5477 20.512C88.6571 19.4667 89.9584 18.656 91.4518 18.08C92.9451 17.504 94.5664 17.216 96.3158 17.216C98.0864 17.216 99.7078 17.504 101.18 18.08C102.673 18.656 103.964 19.4667 105.052 20.512C106.161 21.5573 107.025 22.784 107.644 24.192C108.262 25.5787 108.572 27.1147 108.572 28.8C108.572 30.464 108.262 32.0107 107.644 33.44C107.025 34.848 106.161 36.0747 105.052 37.12C103.964 38.144 102.673 38.944 101.18 39.52C99.7078 40.096 98.0971 40.384 96.3478 40.384ZM96.3158 35.968C97.3184 35.968 98.2358 35.7973 99.0678 35.456C99.9211 35.1147 100.668 34.624 101.308 33.984C101.948 33.344 102.438 32.5867 102.78 31.712C103.142 30.8373 103.324 29.8667 103.324 28.8C103.324 27.7333 103.142 26.7627 102.78 25.888C102.438 25.0133 101.948 24.256 101.308 23.616C100.689 22.976 99.9531 22.4853 99.0998 22.144C98.2464 21.8027 97.3184 21.632 96.3158 21.632C95.3131 21.632 94.3851 21.8027 93.5318 22.144C92.6998 22.4853 91.9638 22.976 91.3238 23.616C90.6838 24.256 90.1824 25.0133 89.8198 25.888C89.4784 26.7627 89.3078 27.7333 89.3078 28.8C89.3078 29.8453 89.4784 30.816 89.8198 31.712C90.1824 32.5867 90.6731 33.344 91.2917 33.984C91.9317 34.624 92.6784 35.1147 93.5318 35.456C94.3851 35.7973 95.3131 35.968 96.3158 35.968ZM123.157 40.384C121.429 40.384 119.819 40.1067 118.325 39.552C116.853 38.976 115.573 38.1653 114.485 37.12C113.397 36.0747 112.544 34.848 111.925 33.44C111.328 32.032 111.029 30.4853 111.029 28.8C111.029 27.1147 111.328 25.568 111.925 24.16C112.544 22.752 113.397 21.5253 114.485 20.48C115.595 19.4347 116.885 18.6347 118.357 18.08C119.829 17.504 121.44 17.216 123.189 17.216C125.131 17.216 126.88 17.5573 128.437 18.24C130.016 18.9013 131.339 19.8827 132.405 21.184L129.077 24.256C128.309 23.3813 127.456 22.7307 126.517 22.304C125.579 21.856 124.555 21.632 123.445 21.632C122.4 21.632 121.44 21.8027 120.565 22.144C119.691 22.4853 118.933 22.976 118.293 23.616C117.653 24.256 117.152 25.0133 116.789 25.888C116.448 26.7627 116.277 27.7333 116.277 28.8C116.277 29.8667 116.448 30.8373 116.789 31.712C117.152 32.5867 117.653 33.344 118.293 33.984C118.933 34.624 119.691 35.1147 120.565 35.456C121.44 35.7973 122.4 35.968 123.445 35.968C124.555 35.968 125.579 35.7547 126.517 35.328C127.456 34.88 128.309 34.208 129.077 33.312L132.405 36.384C131.339 37.6853 130.016 38.6773 128.437 39.36C126.88 40.0427 125.12 40.384 123.157 40.384ZM140.552 26.624H151.336V30.656H140.552V26.624ZM140.936 35.84H153.128V40H135.784V17.6H152.712V21.76H140.936V35.84ZM157.315 40V17.6H167.011C169.017 17.6 170.745 17.9307 172.195 18.592C173.646 19.232 174.766 20.16 175.555 21.376C176.345 22.592 176.739 24.0427 176.739 25.728C176.739 27.392 176.345 28.832 175.555 30.048C174.766 31.264 173.646 32.2027 172.195 32.864C170.745 33.504 169.017 33.824 167.011 33.824H160.195L162.499 31.488V40H157.315ZM162.499 32.064L160.195 29.6H166.723C168.323 29.6 169.518 29.2587 170.307 28.576C171.097 27.8933 171.491 26.944 171.491 25.728C171.491 24.4907 171.097 23.5307 170.307 22.848C169.518 22.1653 168.323 21.824 166.723 21.824H160.195L162.499 19.36V32.064ZM180.159 40V17.6H190.591C193.194 17.6 195.22 18.1013 196.671 19.104C198.122 20.1067 198.847 21.536 198.847 23.392C198.847 25.2267 198.164 26.656 196.799 27.68C195.434 28.6827 193.62 29.184 191.359 29.184L191.967 27.84C194.484 27.84 196.436 28.3413 197.823 29.344C199.21 30.3467 199.903 31.7973 199.903 33.696C199.903 35.6587 199.156 37.2053 197.663 38.336C196.191 39.4453 194.036 40 191.199 40H180.159ZM185.311 36.16H191.007C192.202 36.16 193.108 35.9253 193.727 35.456C194.346 34.9867 194.655 34.2613 194.655 33.28C194.655 32.3413 194.346 31.648 193.727 31.2C193.108 30.7307 192.202 30.496 191.007 30.496H185.311V36.16ZM185.311 26.88H190.143C191.274 26.88 192.127 26.656 192.703 26.208C193.279 25.7387 193.567 25.056 193.567 24.16C193.567 23.264 193.279 22.592 192.703 22.144C192.127 21.6747 191.274 21.44 190.143 21.44H185.311V26.88ZM204.003 40V17.6H209.155V32.192L219.843 17.6H224.707V40H219.587V25.44L208.899 40H204.003ZM240.876 40.384C239.148 40.384 237.537 40.1067 236.044 39.552C234.572 38.976 233.292 38.1653 232.204 37.12C231.116 36.0747 230.263 34.848 229.644 33.44C229.047 32.032 228.748 30.4853 228.748 28.8C228.748 27.1147 229.047 25.568 229.644 24.16C230.263 22.752 231.116 21.5253 232.204 20.48C233.313 19.4347 234.604 18.6347 236.076 18.08C237.548 17.504 239.159 17.216 240.908 17.216C242.849 17.216 244.599 17.5573 246.156 18.24C247.735 18.9013 249.057 19.8827 250.124 21.184L246.796 24.256C246.028 23.3813 245.175 22.7307 244.236 22.304C243.297 21.856 242.273 21.632 241.164 21.632C240.119 21.632 239.159 21.8027 238.284 22.144C237.409 22.4853 236.652 22.976 236.012 23.616C235.372 24.256 234.871 25.0133 234.508 25.888C234.167 26.7627 233.996 27.7333 233.996 28.8C233.996 29.8667 234.167 30.8373 234.508 31.712C234.871 32.5867 235.372 33.344 236.012 33.984C236.652 34.624 237.409 35.1147 238.284 35.456C239.159 35.7973 240.119 35.968 241.164 35.968C242.273 35.968 243.297 35.7547 244.236 35.328C245.175 34.88 246.028 34.208 246.796 33.312L250.124 36.384C249.057 37.6853 247.735 38.6773 246.156 39.36C244.599 40.0427 242.839 40.384 240.876 40.384Z" fill="#040471"/>
<path d="M93.2 52.912C92.9227 53.024 92.656 53.1093 92.4 53.168C92.144 53.2213 91.8987 53.248 91.664 53.248C90.912 53.248 90.336 53.0693 89.936 52.712C89.536 52.3493 89.336 51.8293 89.336 51.152V49.4H90.616V51.008C90.616 51.392 90.72 51.6827 90.928 51.88C91.136 52.072 91.432 52.168 91.816 52.168C92.0613 52.168 92.2987 52.1413 92.528 52.088C92.7573 52.0293 92.9707 51.9467 93.168 51.84L93.2 52.912ZM93.016 55V49.4H94.296V55H93.016ZM95.0562 55L97.5522 49.4H98.8322L101.336 55H99.9762L97.9282 50.056H98.4402L96.3842 55H95.0562ZM96.3042 53.8L96.6482 52.816H99.5282L99.8802 53.8H96.3042ZM104.649 55.096C104.217 55.096 103.814 55.0267 103.441 54.888C103.073 54.744 102.753 54.5413 102.481 54.28C102.209 54.0187 101.995 53.712 101.841 53.36C101.691 53.008 101.617 52.6213 101.617 52.2C101.617 51.7787 101.691 51.392 101.841 51.04C101.995 50.688 102.209 50.3813 102.481 50.12C102.758 49.8587 103.081 49.6587 103.449 49.52C103.817 49.376 104.219 49.304 104.657 49.304C105.142 49.304 105.579 49.3893 105.969 49.56C106.363 49.7253 106.694 49.9707 106.961 50.296L106.129 51.064C105.937 50.8453 105.723 50.6827 105.489 50.576C105.254 50.464 104.998 50.408 104.721 50.408C104.459 50.408 104.219 50.4507 104.001 50.536C103.782 50.6213 103.593 50.744 103.433 50.904C103.273 51.064 103.147 51.2533 103.057 51.472C102.971 51.6907 102.929 51.9333 102.929 52.2C102.929 52.4667 102.971 52.7093 103.057 52.928C103.147 53.1467 103.273 53.336 103.433 53.496C103.593 53.656 103.782 53.7787 104.001 53.864C104.219 53.9493 104.459 53.992 104.721 53.992C104.998 53.992 105.254 53.9387 105.489 53.832C105.723 53.72 105.937 53.552 106.129 53.328L106.961 54.096C106.694 54.4213 106.363 54.6693 105.969 54.84C105.579 55.0107 105.139 55.096 104.649 55.096ZM108.959 55V50.16L109.255 50.456H107.175V49.4H112.031V50.456H109.951L110.239 50.16V55H108.959ZM116.684 49.4H117.98V55H116.684V49.4ZM114.14 55H112.844V49.4H114.14V55ZM116.78 52.704H114.044V51.608H116.78V52.704ZM122.064 55.096C121.621 55.096 121.21 55.024 120.832 54.88C120.458 54.736 120.133 54.5333 119.856 54.272C119.584 54.0107 119.37 53.704 119.215 53.352C119.066 53 118.992 52.616 118.992 52.2C118.992 51.784 119.066 51.4 119.215 51.048C119.37 50.696 119.586 50.3893 119.863 50.128C120.141 49.8667 120.466 49.664 120.84 49.52C121.213 49.376 121.618 49.304 122.056 49.304C122.498 49.304 122.904 49.376 123.272 49.52C123.645 49.664 123.968 49.8667 124.24 50.128C124.517 50.3893 124.733 50.696 124.888 51.048C125.042 51.3947 125.12 51.7787 125.12 52.2C125.12 52.616 125.042 53.0027 124.888 53.36C124.733 53.712 124.517 54.0187 124.24 54.28C123.968 54.536 123.645 54.736 123.272 54.88C122.904 55.024 122.501 55.096 122.064 55.096ZM122.056 53.992C122.306 53.992 122.536 53.9493 122.744 53.864C122.957 53.7787 123.144 53.656 123.304 53.496C123.464 53.336 123.586 53.1467 123.672 52.928C123.762 52.7093 123.808 52.4667 123.808 52.2C123.808 51.9333 123.762 51.6907 123.672 51.472C123.586 51.2533 123.464 51.064 123.304 50.904C123.149 50.744 122.965 50.6213 122.752 50.536C122.538 50.4507 122.306 50.408 122.056 50.408C121.805 50.408 121.573 50.4507 121.36 50.536C121.152 50.6213 120.968 50.744 120.808 50.904C120.648 51.064 120.522 51.2533 120.432 51.472C120.346 51.6907 120.304 51.9333 120.304 52.2C120.304 52.4613 120.346 52.704 120.432 52.928C120.522 53.1467 120.645 53.336 120.799 53.496C120.959 53.656 121.146 53.7787 121.36 53.864C121.573 53.9493 121.805 53.992 122.056 53.992ZM127.31 51.656H130.006V52.664H127.31V51.656ZM127.406 53.96H130.454V55H126.118V49.4H130.35V50.44H127.406V53.96ZM136.446 55.096C136.004 55.096 135.593 55.024 135.214 54.88C134.841 54.736 134.516 54.5333 134.238 54.272C133.966 54.0107 133.753 53.704 133.598 53.352C133.449 53 133.374 52.616 133.374 52.2C133.374 51.784 133.449 51.4 133.598 51.048C133.753 50.696 133.969 50.3893 134.246 50.128C134.524 49.8667 134.849 49.664 135.222 49.52C135.596 49.376 136.001 49.304 136.438 49.304C136.881 49.304 137.286 49.376 137.654 49.52C138.028 49.664 138.35 49.8667 138.622 50.128C138.9 50.3893 139.116 50.696 139.27 51.048C139.425 51.3947 139.502 51.7787 139.502 52.2C139.502 52.616 139.425 53.0027 139.27 53.36C139.116 53.712 138.9 54.0187 138.622 54.28C138.35 54.536 138.028 54.736 137.654 54.88C137.286 55.024 136.884 55.096 136.446 55.096ZM136.438 53.992C136.689 53.992 136.918 53.9493 137.126 53.864C137.34 53.7787 137.526 53.656 137.686 53.496C137.846 53.336 137.969 53.1467 138.054 52.928C138.145 52.7093 138.19 52.4667 138.19 52.2C138.19 51.9333 138.145 51.6907 138.054 51.472C137.969 51.2533 137.846 51.064 137.686 50.904C137.532 50.744 137.348 50.6213 137.134 50.536C136.921 50.4507 136.689 50.408 136.438 50.408C136.188 50.408 135.956 50.4507 135.742 50.536C135.534 50.6213 135.35 50.744 135.19 50.904C135.03 51.064 134.905 51.2533 134.814 51.472C134.729 51.6907 134.686 51.9333 134.686 52.2C134.686 52.4613 134.729 52.704 134.814 52.928C134.905 53.1467 135.028 53.336 135.182 53.496C135.342 53.656 135.529 53.7787 135.742 53.864C135.956 53.9493 136.188 53.992 136.438 53.992ZM139.81 49.4H141.306L142.466 51.096L143.626 49.4H145.146L143.282 52.08L145.298 55H143.77L142.466 53.144L141.178 55H139.682L141.682 52.136L139.81 49.4ZM145.891 55V49.4H148.315C148.817 49.4 149.249 49.4827 149.611 49.648C149.974 49.808 150.254 50.04 150.451 50.344C150.649 50.648 150.747 51.0107 150.747 51.432C150.747 51.848 150.649 52.208 150.451 52.512C150.254 52.816 149.974 53.0507 149.611 53.216C149.249 53.376 148.817 53.456 148.315 53.456H146.611L147.187 52.872V55H145.891ZM147.187 53.016L146.611 52.4H148.243C148.643 52.4 148.942 52.3147 149.139 52.144C149.337 51.9733 149.435 51.736 149.435 51.432C149.435 51.1227 149.337 50.8827 149.139 50.712C148.942 50.5413 148.643 50.456 148.243 50.456H146.611L147.187 49.84V53.016ZM150.689 55L153.185 49.4H154.465L156.969 55H155.609L153.561 50.056H154.073L152.017 55H150.689ZM151.937 53.8L152.281 52.816H155.161L155.513 53.8H151.937ZM161.552 49.4H162.848V55H161.552V49.4ZM159.008 55H157.712V49.4H159.008V55ZM161.648 52.704H158.912V51.608H161.648V52.704ZM168.091 49.4H169.387V55H168.091V49.4ZM165.547 55H164.251V49.4H165.547V55ZM168.187 52.704H165.451V51.608H168.187V52.704ZM173.47 55.096C173.027 55.096 172.616 55.024 172.238 54.88C171.864 54.736 171.539 54.5333 171.262 54.272C170.99 54.0107 170.776 53.704 170.622 53.352C170.472 53 170.398 52.616 170.398 52.2C170.398 51.784 170.472 51.4 170.622 51.048C170.776 50.696 170.992 50.3893 171.27 50.128C171.547 49.8667 171.872 49.664 172.246 49.52C172.619 49.376 173.024 49.304 173.462 49.304C173.904 49.304 174.31 49.376 174.678 49.52C175.051 49.664 175.374 49.8667 175.646 50.128C175.923 50.3893 176.139 50.696 176.294 51.048C176.448 51.3947 176.526 51.7787 176.526 52.2C176.526 52.616 176.448 53.0027 176.294 53.36C176.139 53.712 175.923 54.0187 175.646 54.28C175.374 54.536 175.051 54.736 174.678 54.88C174.31 55.024 173.907 55.096 173.47 55.096ZM173.462 53.992C173.712 53.992 173.942 53.9493 174.15 53.864C174.363 53.7787 174.55 53.656 174.71 53.496C174.87 53.336 174.992 53.1467 175.078 52.928C175.168 52.7093 175.214 52.4667 175.214 52.2C175.214 51.9333 175.168 51.6907 175.078 51.472C174.992 51.2533 174.87 51.064 174.71 50.904C174.555 50.744 174.371 50.6213 174.158 50.536C173.944 50.4507 173.712 50.408 173.462 50.408C173.211 50.408 172.979 50.4507 172.766 50.536C172.558 50.6213 172.374 50.744 172.214 50.904C172.054 51.064 171.928 51.2533 171.838 51.472C171.752 51.6907 171.71 51.9333 171.71 52.2C171.71 52.4613 171.752 52.704 171.838 52.928C171.928 53.1467 172.051 53.336 172.206 53.496C172.366 53.656 172.552 53.7787 172.766 53.864C172.979 53.9493 173.211 53.992 173.462 53.992ZM178.716 51.656H181.412V52.664H178.716V51.656ZM178.812 53.96H181.86V55H177.524V49.4H181.756V50.44H178.812V53.96ZM185.173 55V49.4H190.277V55H188.989V50.16L189.285 50.456H186.165L186.461 50.16V55H185.173ZM191.665 55V49.4H194.089C194.59 49.4 195.022 49.4827 195.385 49.648C195.747 49.808 196.027 50.04 196.225 50.344C196.422 50.648 196.521 51.0107 196.521 51.432C196.521 51.848 196.422 52.208 196.225 52.512C196.027 52.816 195.747 53.0507 195.385 53.216C195.022 53.376 194.59 53.456 194.089 53.456H192.385L192.961 52.872V55H191.665ZM192.961 53.016L192.385 52.4H194.017C194.417 52.4 194.715 52.3147 194.913 52.144C195.11 51.9733 195.209 51.736 195.209 51.432C195.209 51.1227 195.11 50.8827 194.913 50.712C194.715 50.5413 194.417 50.456 194.017 50.456H192.385L192.961 49.84V53.016ZM198.568 51.656H201.264V52.664H198.568V51.656ZM198.664 53.96H201.712V55H197.376V49.4H201.608V50.44H198.664V53.96ZM206.47 54.424V50.456H204.551L204.527 51.272C204.511 51.6187 204.487 51.9467 204.455 52.256C204.428 52.5653 204.385 52.848 204.327 53.104C204.268 53.3547 204.191 53.568 204.095 53.744C204.004 53.92 203.889 54.0453 203.751 54.12L202.367 53.944C202.559 53.9493 202.716 53.8827 202.839 53.744C202.967 53.6053 203.068 53.4107 203.143 53.16C203.217 52.904 203.271 52.6053 203.303 52.264C203.34 51.9227 203.367 51.552 203.383 51.152L203.447 49.4H207.751V54.424H206.47ZM202.183 56.16L202.191 53.944H208.535V56.16H207.335V55H203.383V56.16H202.183ZM209.407 55V49.4H214.511V55H213.223V50.16L213.519 50.456H210.399L210.695 50.16V55H209.407ZM215.899 55V49.4H218.323C218.824 49.4 219.256 49.4827 219.619 49.648C219.982 49.808 220.262 50.04 220.459 50.344C220.656 50.648 220.755 51.0107 220.755 51.432C220.755 51.848 220.656 52.208 220.459 52.512C220.262 52.816 219.982 53.0507 219.619 53.216C219.256 53.376 218.824 53.456 218.323 53.456H216.619L217.195 52.872V55H215.899ZM217.195 53.016L216.619 52.4H218.251C218.651 52.4 218.95 52.3147 219.147 52.144C219.344 51.9733 219.443 51.736 219.443 51.432C219.443 51.1227 219.344 50.8827 219.147 50.712C218.95 50.5413 218.651 50.456 218.251 50.456H216.619L217.195 49.84V53.016ZM221.61 55V49.4H222.898V53.048L225.57 49.4H226.786V55H225.506V51.36L222.834 55H221.61ZM231.372 55V53.232L231.692 53.512H230.156C229.671 53.512 229.252 53.432 228.9 53.272C228.548 53.112 228.279 52.88 228.092 52.576C227.906 52.272 227.812 51.9093 227.812 51.488C227.812 51.0507 227.911 50.6773 228.108 50.368C228.311 50.0533 228.594 49.8133 228.956 49.648C229.319 49.4827 229.746 49.4 230.236 49.4H232.652V55H231.372ZM227.828 55L229.22 52.992H230.532L229.196 55H227.828ZM231.372 52.816V50.12L231.692 50.456H230.268C229.9 50.456 229.618 50.5413 229.42 50.712C229.228 50.8827 229.132 51.136 229.132 51.472C229.132 51.7973 229.226 52.048 229.412 52.224C229.599 52.4 229.874 52.488 230.236 52.488H231.692L231.372 52.816ZM235.263 55V50.16L235.559 50.456H233.479V49.4H238.335V50.456H236.255L236.543 50.16V55H235.263ZM239.149 55V49.4H240.437V53.048L243.109 49.4H244.325V55H243.045V51.36L240.373 55H239.149ZM246.911 51.656H249.607V52.664H246.911V51.656ZM247.007 53.96H250.055V55H245.719V49.4H249.951V50.44H247.007V53.96Z" fill="#040471"/>
</svg>
